HIERARCHY
ROOT hips_JNT
{
	OFFSET -0.000002 -0.004174 1.012281
	CHANNELS 6 Xposition Yposition Zposition Xrotation Yrotation Zrotation
	JOINT spine_JNT
	{
		OFFSET -0.000004 -0.025434 0.093198
		CHANNELS 6 Xposition Yposition Zposition Xrotation Yrotation Zrotation
		JOINT spine1_JNT
		{
			OFFSET 0.000000 0.000000 0.108731
			CHANNELS 6 Xposition Yposition Zposition Xrotation Yrotation Zrotation
			JOINT spine2_JNT
			{
				OFFSET 0.000000 0.059512 0.124264
				CHANNELS 6 Xposition Yposition Zposition Xrotation Yrotation Zrotation
				JOINT neck_JNT
				{
					OFFSET 0.000000 0.014605 0.139797
					CHANNELS 6 Xposition Yposition Zposition Xrotation Yrotation Zrotation
					JOINT head_JNT
					{
						OFFSET 0.000000 -0.020915 0.058702
						CHANNELS 6 Xposition Yposition Zposition Xrotation Yrotation Zrotation
						End Site
						{
							OFFSET 0.000000 0.000000 0.062317
						}
					}
				}
				JOINT l_shoulder_JNT
				{
					OFFSET 0.043991 0.014850 0.128610
					CHANNELS 6 Xposition Yposition Zposition Xrotation Yrotation Zrotation
					JOINT l_arm_JNT
					{
						OFFSET 0.087573 0.000491 -0.023120
						CHANNELS 6 Xposition Yposition Zposition Xrotation Yrotation Zrotation
						JOINT l_forearm_JNT
						{
							OFFSET 0.269001 -0.000000 -0.000001
							CHANNELS 6 Xposition Yposition Zposition Xrotation Yrotation Zrotation
							JOINT l_hand_JNT
							{
								OFFSET 0.230148 0.000000 -0.000000
								CHANNELS 6 Xposition Yposition Zposition Xrotation Yrotation Zrotation
								JOINT l_handThumb1_JNT
								{
									OFFSET 0.036300 -0.021300 -0.007800
									CHANNELS 6 Xposition Yposition Zposition Xrotation Yrotation Zrotation
									JOINT l_handThumb2_JNT
									{
										OFFSET 0.035511 -0.022401 -0.021184
										CHANNELS 6 Xposition Yposition Zposition Xrotation Yrotation Zrotation
										JOINT l_handThumb3_JNT
										{
											OFFSET 0.021591 -0.009635 -0.011163
											CHANNELS 6 Xposition Yposition Zposition Xrotation Yrotation Zrotation
											End Site
											{
												OFFSET 0.000000 0.000000 0.026146
											}
										}
									}
								}
								JOINT l_handIndex1_JNT
								{
									OFFSET 0.105149 -0.021976 -0.000410
									CHANNELS 6 Xposition Yposition Zposition Xrotation Yrotation Zrotation
									JOINT l_handIndex2_JNT
									{
										OFFSET 0.027518 0.001391 -0.001029
										CHANNELS 6 Xposition Yposition Zposition Xrotation Yrotation Zrotation
										JOINT l_handIndex3_JNT
										{
											OFFSET 0.023530 0.000905 -0.000734
											CHANNELS 6 Xposition Yposition Zposition Xrotation Yrotation Zrotation
											End Site
											{
												OFFSET 0.000000 0.000000 0.023559
											}
										}
									}
								}
								JOINT l_handMiddle1_JNT
								{
									OFFSET 0.100671 -0.000596 0.001392
									CHANNELS 6 Xposition Yposition Zposition Xrotation Yrotation Zrotation
									JOINT l_handMiddle2_JNT
									{
										OFFSET 0.039090 0.001191 -0.002884
										CHANNELS 6 Xposition Yposition Zposition Xrotation Yrotation Zrotation
										JOINT l_handMiddle3_JNT
										{
											OFFSET 0.023284 0.000594 -0.000191
											CHANNELS 6 Xposition Yposition Zposition Xrotation Yrotation Zrotation
											End Site
											{
												OFFSET 0.000000 0.000000 0.023292
											}
										}
									}
								}
								JOINT l_handRing1_JNT
								{
									OFFSET 0.094681 0.018098 0.001322
									CHANNELS 6 Xposition Yposition Zposition Xrotation Yrotation Zrotation
									JOINT l_handRing2_JNT
									{
										OFFSET 0.032815 0.000339 -0.002240
										CHANNELS 6 Xposition Yposition Zposition Xrotation Yrotation Zrotation
										JOINT l_handRing3_JNT
										{
											OFFSET 0.022450 0.000084 -0.000702
											CHANNELS 6 Xposition Yposition Zposition Xrotation Yrotation Zrotation
											End Site
											{
												OFFSET 0.000000 0.000000 0.022461
											}
										}
									}
								}
								JOINT l_handPinky1_JNT
								{
									OFFSET 0.084908 0.035841 -0.000778
									CHANNELS 6 Xposition Yposition Zposition Xrotation Yrotation Zrotation
									JOINT l_handPinky2_JNT
									{
										OFFSET 0.025322 0.000170 -0.000731
										CHANNELS 6 Xposition Yposition Zposition Xrotation Yrotation Zrotation
										JOINT l_handPinky3_JNT
										{
											OFFSET 0.019512 -0.000170 0.000251
											CHANNELS 6 Xposition Yposition Zposition Xrotation Yrotation Zrotation
											End Site
											{
												OFFSET 0.000000 0.000000 0.019514
											}
										}
									}
								}
							}
						}
					}
				}
				JOINT r_shoulder_JNT
				{
					OFFSET -0.043978 0.014850 0.128606
					CHANNELS 6 Xposition Yposition Zposition Xrotation Yrotation Zrotation
					JOINT r_arm_JNT
					{
						OFFSET -0.087573 0.000490 -0.023120
						CHANNELS 6 Xposition Yposition Zposition Xrotation Yrotation Zrotation
						JOINT r_forearm_JNT
						{
							OFFSET -0.269000 -0.000000 0.000000
							CHANNELS 6 Xposition Yposition Zposition Xrotation Yrotation Zrotation
							JOINT r_hand_JNT
							{
								OFFSET -0.230149 0.000000 0.000000
								CHANNELS 6 Xposition Yposition Zposition Xrotation Yrotation Zrotation
								JOINT r_handThumb1_JNT
								{
									OFFSET -0.036300 -0.021300 -0.007800
									CHANNELS 6 Xposition Yposition Zposition Xrotation Yrotation Zrotation
									JOINT r_handThumb2_JNT
									{
										OFFSET -0.035512 -0.022401 -0.021180
										CHANNELS 6 Xposition Yposition Zposition Xrotation Yrotation Zrotation
										JOINT r_handThumb3_JNT
										{
											OFFSET -0.021591 -0.009635 -0.011160
											CHANNELS 6 Xposition Yposition Zposition Xrotation Yrotation Zrotation
											End Site
											{
												OFFSET 0.000000 0.000000 0.026145
											}
										}
									}
								}
								JOINT r_handIndex1_JNT
								{
									OFFSET -0.105149 -0.021976 -0.000410
									CHANNELS 6 Xposition Yposition Zposition Xrotation Yrotation Zrotation
									JOINT r_handIndex2_JNT
									{
										OFFSET -0.027518 0.001390 -0.001030
										CHANNELS 6 Xposition Yposition Zposition Xrotation Yrotation Zrotation
										JOINT r_handIndex3_JNT
										{
											OFFSET -0.023530 0.000905 -0.000730
											CHANNELS 6 Xposition Yposition Zposition Xrotation Yrotation Zrotation
											End Site
											{
												OFFSET 0.000000 0.000000 0.023559
											}
										}
									}
								}
								JOINT r_handMiddle1_JNT
								{
									OFFSET -0.100671 -0.000596 0.001400
									CHANNELS 6 Xposition Yposition Zposition Xrotation Yrotation Zrotation
									JOINT r_handMiddle2_JNT
									{
										OFFSET -0.039091 0.001191 -0.002890
										CHANNELS 6 Xposition Yposition Zposition Xrotation Yrotation Zrotation
										JOINT r_handMiddle3_JNT
										{
											OFFSET -0.023284 0.000594 -0.000190
											CHANNELS 6 Xposition Yposition Zposition Xrotation Yrotation Zrotation
											End Site
											{
												OFFSET 0.000000 0.000000 0.023292
											}
										}
									}
								}
								JOINT r_handRing1_JNT
								{
									OFFSET -0.094681 0.018098 0.001330
									CHANNELS 6 Xposition Yposition Zposition Xrotation Yrotation Zrotation
									JOINT r_handRing2_JNT
									{
										OFFSET -0.032816 0.000339 -0.002250
										CHANNELS 6 Xposition Yposition Zposition Xrotation Yrotation Zrotation
										JOINT r_handRing3_JNT
										{
											OFFSET -0.022450 0.000084 -0.000700
											CHANNELS 6 Xposition Yposition Zposition Xrotation Yrotation Zrotation
											End Site
											{
												OFFSET 0.000000 0.000000 0.022461
											}
										}
									}
								}
								JOINT r_handPinky1_JNT
								{
									OFFSET -0.084908 0.035841 -0.000770
									CHANNELS 6 Xposition Yposition Zposition Xrotation Yrotation Zrotation
									JOINT r_handPinky2_JNT
									{
										OFFSET -0.025322 0.000170 -0.000740
										CHANNELS 6 Xposition Yposition Zposition Xrotation Yrotation Zrotation
										JOINT r_handPinky3_JNT
										{
											OFFSET -0.019512 -0.000170 0.000260
											CHANNELS 6 Xposition Yposition Zposition Xrotation Yrotation Zrotation
											End Site
											{
												OFFSET 0.000000 0.000000 0.019515
											}
										}
									}
								}
							}
						}
					}
				}
			}
		}
	}
	JOINT l_upleg_JNT
	{
		OFFSET 0.100614 0.007062 -0.051857
		CHANNELS 6 Xposition Yposition Zposition Xrotation Yrotation Zrotation
		JOINT l_leg_JNT
		{
			OFFSET -0.003486 0.008192 -0.455824
			CHANNELS 6 Xposition Yposition Zposition Xrotation Yrotation Zrotation
			JOINT l_foot_JNT
			{
				OFFSET 0.003491 0.017085 -0.423325
				CHANNELS 6 Xposition Yposition Zposition Xrotation Yrotation Zrotation
				JOINT l_toebase_JNT
				{
					OFFSET 0.000703 -0.128887 -0.081267
					CHANNELS 6 Xposition Yposition Zposition Xrotation Yrotation Zrotation
					End Site
					{
						OFFSET 0.000000 0.000000 0.152370
					}
				}
			}
		}
	}
	JOINT r_upleg_JNT
	{
		OFFSET -0.100610 0.007062 -0.051858
		CHANNELS 6 Xposition Yposition Zposition Xrotation Yrotation Zrotation
		JOINT r_leg_JNT
		{
			OFFSET 0.003486 0.008192 -0.455824
			CHANNELS 6 Xposition Yposition Zposition Xrotation Yrotation Zrotation
			JOINT r_foot_JNT
			{
				OFFSET -0.003492 0.017085 -0.423325
				CHANNELS 6 Xposition Yposition Zposition Xrotation Yrotation Zrotation
				JOINT r_toebase_JNT
				{
					OFFSET -0.000702 -0.128887 -0.081267
					CHANNELS 6 Xposition Yposition Zposition Xrotation Yrotation Zrotation
					End Site
					{
						OFFSET 0.000000 0.000000 0.152370
					}
				}
			}
		}
	}
}
MOTION
Frames: 4
Frame Time: 0.041667
0.045978 0.038783 0.997912 1.316609 1.819653 5.814715 -0.000004 -0.025434 0.093198 -0.180278 -1.254913 0.777016 -0.000000 0.000000 0.108731 0.000000 -0.000000 0.029653 -0.000000 0.059512 0.124264 -0.059179 -0.566181 0.490568 0.000000 0.014605 0.139797 -6.017465 8.142508 8.743831 -0.000000 -0.020915 0.058702 8.621952 -2.290963 2.968497 0.043991 0.014850 0.128610 0.000000 -0.000000 0.014017 0.087574 0.000490 -0.023120 -81.414946 34.117389 -5.443634 0.269001 -0.000000 -0.000001 -0.000014 -0.000004 -49.108340 0.230148 0.000000 -0.000000 -7.698887 -31.593375 -18.500822 0.036300 -0.021300 -0.007800 11.742213 13.569333 -1.705862 0.035511 -0.022401 -0.021184 10.591764 0.456007 18.500817 0.021591 -0.009635 -0.011163 18.922961 -0.982382 35.360699 0.105149 -0.021976 -0.000410 0.335171 68.607228 4.709923 0.027518 0.001391 -0.001029 16.054341 79.946353 -14.728034 0.023530 0.000905 -0.000734 2.355225 43.502271 -1.528246 0.100671 -0.000596 0.001392 13.153730 67.485691 -17.739733 0.039090 0.001191 -0.002884 11.306585 81.948774 -11.063067 0.023284 0.000594 -0.000191 1.226563 44.373786 -1.064917 0.094681 0.018098 0.001322 15.348410 67.388900 -23.661141 0.032815 0.000339 -0.002240 5.923451 85.577052 -6.755411 0.022450 0.000084 -0.000702 0.262486 55.336984 -0.857679 0.084908 0.035842 -0.000778 17.245003 71.380934 -30.961166 0.025322 0.000170 -0.000731 165.549784 101.456791 -169.187611 0.019512 -0.000170 0.000251 -13.383972 77.597376 9.791736 -0.043978 0.014850 0.128606 0.000000 -0.000000 0.014017 -0.087573 0.000490 -0.023120 60.606024 -36.626763 49.479557 -0.269000 -0.000000 -0.000000 0.000004 0.000003 106.354351 -0.230149 0.000000 -0.000000 -6.331164 -10.082626 11.143793 -0.036300 -0.021300 -0.007800 0.174304 6.165870 -10.604955 -0.035512 -0.022400 -0.021180 6.087913 2.622091 -12.156658 -0.021591 -0.009635 -0.011160 18.432345 0.998576 -34.452266 -0.105149 -0.021976 -0.000410 -1.153181 -13.409173 -15.181518 -0.027518 0.001390 -0.001030 0.532251 -13.192654 0.246102 -0.023530 0.000905 -0.000730 2.340066 -43.163032 1.557324 -0.100671 -0.000596 0.001400 -1.902366 -16.484428 -15.395566 -0.039091 0.001191 -0.002890 77.758534 -88.239391 77.569830 -0.023284 0.000594 -0.000190 26.284516 -86.209732 26.099760 -0.094681 0.018098 0.001330 -2.531371 -18.674186 -15.608096 -0.032816 0.000339 -0.002250 87.587723 -89.446860 88.515638 -0.022450 0.000084 -0.000700 1.518060 -75.674261 2.329756 -0.084908 0.035841 -0.000770 -6.242139 -28.155317 -17.252387 -0.025322 0.000170 -0.000740 99.522393 -92.775402 103.607133 -0.019512 -0.000170 0.000260 -8.314391 -70.229474 -4.969027 0.100614 0.007062 -0.051858 -13.362270 -8.316939 4.615003 -0.003486 0.008192 -0.455824 19.238954 0.471762 0.008658 0.003491 0.017085 -0.423325 -6.622015 5.112745 23.786853 0.000703 -0.128887 -0.081267 -0.821536 0.002146 -0.312137 -0.100610 0.007062 -0.051858 -2.789859 6.975377 3.841357 0.003486 0.008192 -0.455824 4.620963 -0.471778 0.048049 -0.003492 0.017085 -0.423325 -3.677818 -8.216642 9.152951 -0.000702 -0.128887 -0.081267 -0.807544 -0.001997 0.314625 
0.055608 0.040852 0.996245 1.108493 2.132982 4.470246 -0.000004 -0.025434 0.093198 -0.182143 -1.437246 0.870364 0.000000 0.000000 0.108731 -0.000000 -0.000000 -0.000000 0.000000 0.059512 0.124264 -0.058736 -0.685183 0.552233 0.000000 0.014605 0.139797 -4.068572 7.243110 7.762403 -0.000000 -0.020915 0.058702 7.446313 -1.135652 4.058745 0.043991 0.014850 0.128610 0.000000 0.000000 0.027947 0.087573 0.000491 -0.023120 -78.436827 34.957205 -4.309803 0.269001 0.000000 -0.000000 -0.000006 0.000001 -47.648677 0.230148 0.000000 -0.000000 -10.614557 -34.721287 -16.388282 0.036300 -0.021300 -0.007800 12.719467 14.045118 0.300522 0.035511 -0.022401 -0.021183 9.980652 0.272099 17.460443 0.021591 -0.009635 -0.011163 17.091911 -1.405521 31.917457 0.105149 -0.021976 -0.000410 1.710582 70.485496 2.777495 0.027518 0.001390 -0.001028 13.185341 77.962696 -11.885287 0.023530 0.000905 -0.000734 2.244865 42.240513 -1.436909 0.100671 -0.000596 0.001392 17.805612 69.480359 -23.625027 0.039090 0.001191 -0.002884 7.916940 78.854739 -7.679798 0.023284 0.000594 -0.000191 1.160160 43.008663 -1.001924 0.094681 0.018098 0.001322 19.743505 69.273793 -29.109921 0.032815 0.000339 -0.002241 3.985303 83.736350 -4.803268 0.022450 0.000084 -0.000702 0.234635 53.936269 -0.818171 0.084908 0.035841 -0.000778 21.839842 72.742751 -36.476820 0.025322 0.000170 -0.000731 167.019995 102.766377 -170.603345 0.019512 -0.000170 0.000251 -15.181149 79.057623 11.533130 -0.043978 0.014850 0.128606 0.000000 0.000000 0.027947 -0.087573 0.000491 -0.023120 58.871381 -38.904556 49.219689 -0.269000 -0.000000 -0.000000 -0.000001 0.000003 105.892268 -0.230149 0.000000 0.000000 -6.799585 -12.014736 12.251163 -0.036300 -0.021300 -0.007800 -0.740717 8.025856 -11.340966 -0.035512 -0.022401 -0.021180 5.925410 1.884922 -11.424945 -0.021591 -0.009635 -0.011160 18.245619 1.045045 -34.099900 -0.105149 -0.021976 -0.000410 -1.362149 -15.604312 -15.280807 -0.027518 0.001390 -0.001030 0.808984 -19.270744 0.408307 -0.023530 0.000905 -0.000730 4.130539 -57.608773 3.150418 -0.100671 -0.000596 0.001400 -2.175997 -18.549199 -15.537956 -0.039091 0.001191 -0.002890 77.923012 -88.240402 77.734233 -0.023284 0.000594 -0.000190 22.497395 -85.636898 22.313502 -0.094681 0.018098 0.001330 -2.792007 -20.281567 -15.746861 -0.032816 0.000339 -0.002250 88.072673 -89.446976 89.000944 -0.022450 0.000084 -0.000700 1.519984 -75.686972 2.331778 -0.084908 0.035841 -0.000770 -5.912615 -26.965003 -17.024834 -0.025322 0.000171 -0.000740 94.971697 -92.744270 99.064968 -0.019512 -0.000170 0.000260 -9.243678 -72.190148 -5.820922 0.100614 0.007062 -0.051857 -13.992453 -8.245540 4.875740 -0.003486 0.008192 -0.455824 21.456476 0.471710 0.021334 0.003491 0.017085 -0.423325 -8.015563 4.533944 24.781296 0.000703 -0.128887 -0.081267 -0.818219 0.002157 -0.314009 -0.100610 0.007062 -0.051858 -2.564823 7.312307 4.125439 0.003486 0.008192 -0.455824 3.714009 -0.471816 0.078395 -0.003492 0.017085 -0.423325 -2.866729 -8.913488 10.205393 -0.000702 -0.128887 -0.081267 -0.806598 -0.002012 0.312734 
0.062967 0.042076 0.994567 0.943636 2.383235 3.285102 -0.000004 -0.025434 0.093198 -0.178154 -1.608213 0.913521 0.000000 0.000000 0.108731 -0.000000 0.000000 -0.000000 0.000000 0.059512 0.124264 -0.056112 -0.804859 0.578990 0.000000 0.014605 0.139797 -2.065474 6.275716 6.613191 -0.000000 -0.020915 0.058702 6.214469 -0.091699 4.901574 0.043991 0.014850 0.128610 -0.000000 0.000000 0.029695 0.087573 0.000491 -0.023120 -76.492566 37.105607 -1.558546 0.269001 -0.000000 -0.000001 0.000002 -0.000005 -47.475532 0.230148 -0.000000 -0.000000 -13.606751 -34.145601 -14.055845 0.036300 -0.021300 -0.007800 13.533899 14.369965 2.397311 0.035512 -0.022401 -0.021184 9.085402 -0.112511 16.024363 0.021591 -0.009635 -0.011163 15.212930 -1.721238 28.414461 0.105149 -0.021976 -0.000410 3.520798 72.272574 0.375102 0.027518 0.001391 -0.001029 10.701960 75.458666 -9.434801 0.023530 0.000905 -0.000734 2.129089 40.853397 -1.342241 0.100671 -0.000596 0.001392 23.438638 71.198035 -30.499254 0.039090 0.001191 -0.002884 5.885747 75.498684 -5.655510 0.023284 0.000594 -0.000191 1.085958 41.392664 -0.931803 0.094681 0.018098 0.001322 24.874588 70.950018 -35.242301 0.032815 0.000339 -0.002240 2.870972 81.753574 -3.673878 0.022450 0.000084 -0.000702 0.207738 52.447021 -0.778789 0.084908 0.035841 -0.000778 26.788723 73.970054 -42.208185 0.025322 0.000170 -0.000731 168.781173 104.777438 -172.283927 0.019512 -0.000170 0.000251 -17.409729 80.447662 13.707615 -0.043978 0.014850 0.128606 -0.000000 0.000000 0.029695 -0.087573 0.000491 -0.023120 57.194351 -41.037737 49.043863 -0.269000 -0.000000 0.000000 -0.000006 0.000011 105.202938 -0.230149 -0.000000 0.000000 -7.129877 -14.778733 13.014648 -0.036300 -0.021300 -0.007800 -1.218371 9.323772 -12.133280 -0.035512 -0.022401 -0.021180 5.654445 1.384554 -10.637473 -0.021591 -0.009635 -0.011160 17.992137 1.106167 -33.622156 -0.105149 -0.021976 -0.000410 -1.539991 -17.414966 -15.374213 -0.027518 0.001391 -0.001030 0.940474 -21.953142 0.491980 -0.023530 0.000905 -0.000730 6.738484 -67.984411 5.625227 -0.100671 -0.000596 0.001400 -2.416022 -20.300603 -15.673097 -0.039091 0.001191 -0.002890 78.033115 -88.241079 77.844369 -0.023284 0.000594 -0.000190 18.080166 -84.668049 17.897667 -0.094681 0.018098 0.001330 -3.052760 -21.840858 -15.896413 -0.032816 0.000339 -0.002250 88.396028 -89.447030 89.324148 -0.022450 0.000084 -0.000700 1.456624 -75.255639 2.264868 -0.084908 0.035842 -0.000770 -5.711007 -26.220997 -16.886936 -0.025322 0.000170 -0.000740 91.885353 -92.733267 95.984348 -0.019512 -0.000170 0.000260 -9.730091 -73.073332 -6.272624 0.100614 0.007062 -0.051858 -14.448881 -8.292586 5.432968 -0.003486 0.008192 -0.455824 23.242061 0.471812 0.015848 0.003491 0.017085 -0.423325 -9.140875 4.090182 25.330877 0.000703 -0.128887 -0.081267 -0.820977 0.002162 -0.308326 -0.100610 0.007062 -0.051858 -2.811466 7.530518 4.468802 0.003486 0.008192 -0.455824 3.845320 -0.471791 0.045672 -0.003492 0.017085 -0.423325 -2.649245 -9.448238 11.102165 -0.000702 -0.128887 -0.081267 -0.806193 -0.002040 0.307071 
0.068461 0.042911 0.993083 0.850896 2.432504 2.239735 -0.000004 -0.025434 0.093198 -0.166313 -1.720667 0.895444 0.000000 0.000000 0.108731 -0.000000 -0.000000 0.039574 0.000000 0.059512 0.124264 -0.050566 -0.895937 0.565665 0.000000 0.014605 0.139797 -0.109772 5.367334 5.402314 0.000000 -0.020915 0.058702 5.002446 0.809134 5.488189 0.043991 0.014850 0.128610 -0.000000 0.000000 0.039543 0.087573 0.000491 -0.023120 -76.123387 40.522802 3.310357 0.269001 -0.000000 -0.000001 0.000013 0.000001 -48.569759 0.230148 0.000000 -0.000000 -17.126621 -31.022504 -11.345136 0.036300 -0.021300 -0.007800 14.238813 14.597156 4.556640 0.035511 -0.022401 -0.021184 7.987581 -0.611744 14.313918 0.021591 -0.009634 -0.011163 13.300256 -1.922756 24.869885 0.105149 -0.021976 -0.000410 5.854228 73.981133 -2.573594 0.027518 0.001390 -0.001029 8.743512 72.594700 -7.513871 0.023530 0.000905 -0.000734 2.012003 39.381228 -1.247839 0.100671 -0.000596 0.001392 30.134672 72.607800 -38.441025 0.039090 0.001191 -0.002884 4.564472 71.966725 -4.341541 0.023284 0.000595 -0.000191 1.008983 39.606621 -0.859405 0.094681 0.018098 0.001322 30.859228 72.397239 -42.192087 0.032815 0.000339 -0.002241 2.165513 79.674778 -2.952571 0.022450 0.000084 -0.000702 0.182402 50.897685 -0.740347 0.084908 0.035841 -0.000778 32.226335 75.060740 -48.334076 0.025322 0.000170 -0.000731 170.405625 107.270218 -173.809777 0.019512 -0.000170 0.000251 -20.281190 81.781099 16.526324 -0.043978 0.014850 0.128606 -0.000000 0.000000 0.039543 -0.087573 0.000491 -0.023120 55.632178 -42.949476 48.961320 -0.269000 -0.000000 0.000000 -0.000006 0.000006 104.333592 -0.230149 0.000000 -0.000000 -7.305464 -18.114766 13.394862 -0.036300 -0.021300 -0.007800 -1.359523 10.149416 -12.939874 -0.035512 -0.022400 -0.021180 5.240979 1.177873 -9.779297 -0.021591 -0.009635 -0.011160 17.699745 1.173909 -33.071916 -0.105149 -0.021975 -0.000410 -1.662596 -18.634595 -15.441092 -0.027518 0.001391 -0.001030 0.949522 -22.132772 0.497879 -0.023530 0.000905 -0.000730 10.654497 -75.212561 9.450683 -0.100671 -0.000596 0.001400 -2.591911 -21.550066 -15.776236 -0.039091 0.001191 -0.002890 78.106136 -88.241522 77.917323 -0.023284 0.000595 -0.000190 14.178779 -83.326525 13.998189 -0.094681 0.018098 0.001330 -3.270013 -23.104283 -16.027051 -0.032816 0.000340 -0.002250 88.611179 -89.447058 89.539334 -0.022450 0.000084 -0.000700 1.340397 -74.391149 2.141513 -0.084908 0.035842 -0.000770 -5.614342 -25.861681 -16.819594 -0.025322 0.000170 -0.000740 89.825915 -92.730350 93.928693 -0.019512 -0.000170 0.000260 -9.524047 -72.708962 -6.081059 0.100614 0.007062 -0.051857 -14.705633 -8.300961 6.385855 -0.003486 0.008192 -0.455824 24.472307 0.471777 0.022666 0.003491 0.017085 -0.423325 -9.922925 3.743357 25.401006 0.000703 -0.128887 -0.081267 -0.821570 0.002159 -0.311506 -0.100610 0.007062 -0.051858 -3.573214 7.797919 4.891748 0.003486 0.008192 -0.455824 4.995498 -0.471827 0.129663 -0.003492 0.017085 -0.423325 -2.994573 -9.863843 11.854096 -0.000702 -0.128887 -0.081267 -0.806329 -0.002073 0.311504 
